<?xml version="1.0" standalone="no"?>
<svg viewBox="0 0 200 200" xmlns="http://www.w3.org/2000/svg">
  <path fill="#9EF0F0" d="M40.5,-73.2C49.6,-64.8,52.3,-48.3,57.3,-34.7C62.3,-21.1,69.7,-10.6,72.1,1.4C74.5,13.4,72,26.7,66.7,39.8C61.4,53,53.4,65.8,41.9,70.5C30.3,75.2,15.1,71.7,0.1,71.5C-14.9,71.3,-29.9,74.4,-41.8,70C-53.8,65.5,-62.8,53.5,-67.1,40.6C-71.4,27.6,-71,13.8,-71.2,-0.1C-71.4,-14,-72.2,-28.1,-66.7,-38.9C-61.2,-49.8,-49.3,-57.4,-37.2,-64.1C-25,-70.7,-12.5,-76.5,1.6,-79.2C15.7,-81.9,31.3,-81.6,40.5,-73.2Z" transform="translate(100 100)" />
</svg>
